<svg xmlns="http://www.w3.org/2000/svg" data-name="Layer 1" viewBox="0 0 64 64"><path fill="#4c5c68" d="M48.6,11.12c-4.36.43-7.6,2-7.6,3.88,0,2.21,4.48,4,10,4s10-1.79,10-4c0-1.88-3.24-3.45-7.6-3.88Z"/><polygon fill="#2d3142" points="24 39 24 36 28 36 28 41.67 24 39"/><rect width="26" height="16" x="5" y="45" fill="#46494c"/><polygon fill="#1985a1" points="18 35 3 45 33 45 18 35"/><polygon fill="#f71735" points="37 16 33 13 33 19 37 16"/><path fill="#ff9f1c" d="M18,53h0a3,3,0,0,1,3,3v5a0,0,0,0,1,0,0H15a0,0,0,0,1,0,0V56A3,3,0,0,1,18,53Z"/><path fill="#f71735" d="M55,7c0,2.209-4,8-4,8s-4-5.791-4-8a4,4,0,0,1,8,0Z"/><path d="M54.949 10.317A8.792 8.792 0 0 0 56 7 5 5 0 0 0 46 7a8.792 8.792 0 0 0 1.051 3.317C42.724 11.016 40 12.787 40 15c0 3.248 5.667 5 11 5s11-1.752 11-5C62 12.787 59.276 11.016 54.949 10.317zM51 4a3 3 0 0 1 3 3c0 1.092-1.561 3.942-3 6.192-1.439-2.249-3-5.1-3-6.192A3 3 0 0 1 51 4zm0 14c-5.494 0-9-1.776-9-3 0-.884 2.114-2.285 6.054-2.8.89 1.551 1.8 2.9 2.123 3.365a1 1 0 0 0 1.646 0c.321-.465 1.233-1.814 2.123-3.365C57.886 12.715 60 14.116 60 15 60 16.224 56.494 18 51 18zM28 35H24a1 1 0 0 0-1 1v1.132l-4.445-2.964a1 1 0 0 0-1.11 0l-15 10A1 1 0 0 0 3 46H4V61a1 1 0 0 0 1 1H31a1 1 0 0 0 1-1V46h1a1 1 0 0 0 .555-1.832L29 41.132V36A1 1 0 0 0 28 35zm-3 2h2v2.8l-2-1.333zM20 60H16V56a2 2 0 0 1 4 0zm10 0H22V56a4 4 0 0 0-8 0v4H6V46H30zm-.3-16H6.3L18 36.2z"/><path d="M49,28H9.5a5.5,5.5,0,0,1,0-11H32v2a1,1,0,0,0,1.6.8l4-3a1,1,0,0,0,0-1.6l-4-3A1,1,0,0,0,32,13v2H9.5a7.5,7.5,0,0,0,0,15H49a11,11,0,0,1,0,22H34v2H49a13,13,0,0,0,0-26ZM34,15l1.333,1L34,17Z"/></svg>